<svg width="640" height="438" viewBox="0 0 640 438" fill="none" xmlns="http://www.w3.org/2000/svg">
<rect width="640" height="438" fill="#D9D9D9"/>
<path d="M310.818 238.818V238.273C310.879 232.485 311.485 227.879 312.636 224.455C313.788 221.03 315.424 218.258 317.545 216.136C319.667 214.015 322.212 212.061 325.182 210.273C326.97 209.182 328.576 207.894 330 206.409C331.424 204.894 332.545 203.152 333.364 201.182C334.212 199.212 334.636 197.03 334.636 194.636C334.636 191.667 333.939 189.091 332.545 186.909C331.152 184.727 329.288 183.045 326.955 181.864C324.621 180.682 322.03 180.091 319.182 180.091C316.697 180.091 314.303 180.606 312 181.636C309.697 182.667 307.773 184.288 306.227 186.5C304.682 188.712 303.788 191.606 303.545 195.182H292.091C292.333 190.03 293.667 185.621 296.091 181.955C298.545 178.288 301.773 175.485 305.773 173.545C309.803 171.606 314.273 170.636 319.182 170.636C324.515 170.636 329.152 171.697 333.091 173.818C337.061 175.939 340.121 178.848 342.273 182.545C344.455 186.242 345.545 190.455 345.545 195.182C345.545 198.515 345.03 201.53 344 204.227C343 206.924 341.545 209.333 339.636 211.455C337.758 213.576 335.485 215.455 332.818 217.091C330.152 218.758 328.015 220.515 326.409 222.364C324.803 224.182 323.636 226.348 322.909 228.864C322.182 231.379 321.788 234.515 321.727 238.273V238.818H310.818ZM316.636 265.727C314.394 265.727 312.47 264.924 310.864 263.318C309.258 261.712 308.455 259.788 308.455 257.545C308.455 255.303 309.258 253.379 310.864 251.773C312.47 250.167 314.394 249.364 316.636 249.364C318.879 249.364 320.803 250.167 322.409 251.773C324.015 253.379 324.818 255.303 324.818 257.545C324.818 259.03 324.439 260.394 323.682 261.636C322.955 262.879 321.97 263.879 320.727 264.636C319.515 265.364 318.152 265.727 316.636 265.727Z" fill="black"/>
</svg>
