<?xml version="1.0" encoding="UTF-8"?>
<!-- Generated by Pixelmator Pro 3.5.7 -->
<svg width="1145" height="1089" viewBox="0 0 1145 1089" xmlns="http://www.w3.org/2000/svg">
    <path id="Path" fill="none" stroke="#000000" stroke-width="11" d="M 601.351563 766.648438 L 602.382813 775.46875 C 603.988403 789.194092 624.338623 823.956482 628.853394 844.692261 C 633.317139 865.185791 645.324707 932.87439 599.822632 904.47937 C 573.586548 888.107178 529.026611 837.353638 505.332886 814.000244 C 487.707031 796.627197 452.989868 751.747192 430.707886 743.517212 C 424.934204 741.384399 417.878052 770.985596 416.776611 774.248901 C 411.264893 790.579224 393.418945 854.575684 364.037231 841.840271 C 356.174805 838.432739 339.863403 788.344116 336.646973 780.445862 C 317.835327 734.25415 305.395996 688.760986 292.362061 641.065918 C 288.503296 626.936279 249.994141 657.155396 242.516113 663.346619 C 230.2323 673.516479 209.667603 695.784241 237.531128 695.068054 C 304.572266 693.344849 334.39917 708.683838 382.123413 753.485229 C 425.897095 794.580933 465.845947 843.568726 475.132813 903.992188"/>
    <path id="path1" fill="none" stroke="#000000" stroke-width="11" d="M 804.335938 663.085938 L 805.164063 671.117188 C 806.730347 686.306274 832.898071 732.489868 846.864136 742.713074 C 864.242676 755.434387 884.561768 768.282471 845.479492 775.667664 C 802.085938 783.86792 744.013428 787.025269 703.939453 800.44751 C 656.204712 816.437317 689.022339 852.066772 683.15918 880.45459 C 678.788208 901.61554 653.268921 896.112183 643.501953 883.037354 C 602.208374 827.751953 571.636475 782.284058 500.121094 769.119202 C 476.62793 764.794373 466.625366 755.093201 454.351563 735.570313"/>
    <path id="path2" fill="none" stroke="#000000" stroke-width="11" d="M 252.640625 519.3125 L 269.546875 535.28125 L 274.21875 540.59375 L 277.078125 544.65625 L 279.359375 548.640625 L 281.171875 552.71875 L 282.828125 558.15625 L 283.703125 564.890625 L 283.609375 568.71875 L 283.09375 572.296875 L 282.0625 576.09375 L 280.6875 579.453125 L 277.25 585.0625 L 272.640625 590.03125 L 266.609375 594.5 L 259.328125 598.125 L 250.640625 600.859375 L 242 602.359375 L 233.28125 602.84375 L 226.015625 602.140625 L 219.953125 600.421875 L 215.234375 597.9375 L 213.421875 596.546875 L 210.921875 593.984375 L 208.375 590 L 206.21875 583.984375 L 205.578125 580.15625 L 205.40625 574.234375 L 205.796875 569.65625 L 207 563.234375 L 209.03125 556.578125 L 211.6875 550.109375 L 215 543.828125 L 218.03125 539.015625 L 223.265625 532.296875 L 229.9375 526.421875 L 237.578125 520.96875 L 248.046875 514.234375 Z M 219.828125 429.046875 L 223.953125 431.84375 L 233.375 440.421875 L 241.53125 449.484375 L 251.265625 462.484375 L 257.328125 472.859375 L 260.875 481.890625 L 261.625 485.671875 L 261.703125 487.90625 L 260.96875 491.328125 L 260.765625 491.703125 L 259.375 493.203125 L 252.9375 498.03125 L 250.015625 499.90625 L 241.921875 489.4375 L 232.578125 474.703125 L 227.59375 465.3125 L 223.140625 455.703125 L 218.921875 445.296875 L 213.875 430.828125 L 212.171875 425.25 Z"/>
    <path id="path3" fill="none" stroke="#000000" stroke-width="11" d="M 302.539063 323.203125 L 291.40625 323.570313 C 272.10083 324.208618 253.677246 379.559021 245.269775 393.49585 C 235.418091 409.825684 224.025146 423.999146 211.40625 438.140625"/>
    <path id="path4" fill="none" stroke="#000000" stroke-width="11" d="M 815.242188 208.4375 L 815.242188 217.710938 C 815.242188 264.928223 822.20813 267.025085 850.563843 298.297363 C 891.303589 343.228577 898.71521 397.398132 879.835938 451.726563"/>
    <path id="path5" fill="none" stroke="#000000" stroke-width="11" d="M 308.203125 208.78125 L 310.0625 214.953125 C 317.621338 240.042542 315.050171 266.854797 292.291992 280.022766 C 247.801758 305.766663 237.143311 340.949707 266.519287 384.385437 C 290.550659 419.919922 274.644897 446.854553 243.619995 467.536072 C 207.115234 491.869507 174.782837 515.011963 210.634399 559.660583 C 229.683105 583.385498 283.413452 625.665405 296.084961 570.534424 C 300.099976 553.055115 260.714478 555.719238 252.270874 568.782654 C 232.99353 598.598633 244.370239 652.364136 281.445068 658.659729 C 328.356201 666.624878 433.11377 693.312256 383.699951 762.791931 C 348.750732 811.935242 289.986572 816.209656 259.901123 763.5802 C 246.336548 739.849731 224.567871 700.508118 271.018188 713.254517 C 340.516357 732.324829 367.175049 782.615662 406.63855 834.51947 C 445.488892 885.616577 536.522339 903.713806 563.06604 830.145935 C 570.114624 810.61145 515.192627 784.481445 506.101074 818.945251 C 497.470215 851.656372 553.082153 858.784973 572.753418 855.417297 C 627.18396 846.099243 659.115845 818.151733 684.35376 770.418091 C 700.501587 739.876404 781.229614 730.290039 810.801025 737.929138 C 862.453613 751.27301 830.318604 806.656006 805.039673 827.210022 C 783.824097 844.460999 715.337646 882.837463 699.564331 840.090332 C 691.714355 818.812256 739.850098 780.243347 753.205566 768.754761 C 805.114502 724.101257 886.204834 664.185791 913.874756 601.099854 C 926.357788 572.640991 881.79541 573.189209 870.17334 591.050903 C 850.963623 620.57312 819.871582 713.582886 886.660889 708.26709 C 916.575684 705.88623 927.167358 636.324585 930.161499 614.691406 C 936.780029 566.872742 937.334473 553.033997 897.438721 523.942627 C 853.257813 491.729614 917.583862 487.1297 923.127075 457.621216 C 926.784546 438.151184 928.034424 419.908264 933.499146 400.364136 C 940.535767 375.198547 887.7146 372.761597 871.604614 360.127136 C 846.933228 340.778198 831.262695 290.07428 881.728638 299.32135 C 913.356934 305.116882 896.113403 375.199219 901.067627 397.688721 C 912.01709 447.384583 983.549316 495.347656 922.486206 540.405518 C 900.626343 556.535889 875.842529 567.52179 854.742188 584.882813"/>
    <path id="path6" fill="none" stroke="#000000" stroke-width="4" d="M 406.157715 91.789124 L 406.554565 92.836304 C 409.373779 100.281006 402.223999 120.349121 415.514282 120.532593 C 420.412231 120.599182 423.235229 113.824524 429.07312 113.916687 C 432.552612 113.971802 444.111206 110.688171 436.503174 106.521301 C 429.012695 102.4198 418.700806 110.904846 417.13562 98.945374 C 416.954346 97.561951 415.685669 82.881958 421.803955 88.437805 C 425.858276 92.120056 425.17627 95.415894 432.295898 92.59906 C 434.49585 91.72821 448.276978 85.454651 447.263672 92.806763 C 446.688232 96.955627 435.238647 98.529297 432.062866 99.511902 C 422.151123 102.577271 413.028442 109.56134 403.050537 111.723083 C 398.076782 112.799927 392.716309 110.016357 388.292236 108.154541"/>
    <path id="path7" fill="none" stroke="#000000" stroke-width="4" d="M 720.122314 85.7771 L 720.122314 86.700195 C 720.122314 95.536804 716.752808 98.313416 711.622437 105.091736 C 706.699341 111.59314 717.430176 112.427063 721.354492 109.029541 C 726.241211 104.798889 726.071533 96.185547 731.004761 92.745789 C 736.950195 88.599365 736.04834 100.811707 735.491211 103.04187 C 733.19104 112.259888 732.891846 122.321777 730.094604 131.311707 C 729.011108 134.801147 729.729614 122.67511 729.605225 121.250122 C 728.581299 109.541321 718.981812 111.533875 711.404297 106.95282 C 706.209717 103.807861 718.272949 98.310852 719.862915 97.985657 C 721.973755 97.554443 724.324829 96.661621 725.827271 98.464417"/>
    <path id="path8" fill="none" stroke="#000000" stroke-width="20" d="M 751.4375 997.1875 L 730.921875 1006.390625 L 705.078125 1016.484375 L 684.0625 1023.53125 L 663.21875 1029.484375 L 642.25 1034.390625 L 620.96875 1038.265625 L 599.8125 1041.015625 L 579 1042.59375 L 558.1875 1043 L 537.234375 1042.1875 L 516.859375 1040.234375 L 496.234375 1037.109375 L 470.640625 1031.609375 L 450.625 1026.078125 L 430.28125 1019.359375 L 410.890625 1011.875 L 391.015625 1003.125 L 372.046875 993.71875 L 353.3125 983.375 L 334.71875 972.015625 L 312.109375 956.734375 L 294.421875 943.515625 L 277.515625 929.796875 L 261.09375 915.34375 L 241.171875 896.171875 L 222 875.84375 L 207.828125 859.421875 L 193.8125 841.828125 L 180.84375 824.171875 L 165.53125 801.296875 L 154.21875 782.578125 L 143.5 763.125 L 133.875 743.78125 L 122.96875 718.9375 L 115.3125 698.875 L 108.453125 678.140625 L 102.765625 657.875 L 97.9375 636.78125 L 94.265625 616.140625 L 92.453125 601.046875 L 91.703125 585.71875 L 91.984375 570.03125 L 93.890625 548.296875 L 96.375 531.84375 L 101.046875 509.765625 L 104.046875 498.1875 L 104.03125 498.1875 L 109.015625 481.4375 L 114.96875 463.890625 L 121.359375 447.03125 L 133.984375 417.671875 L 142.109375 400.703125 L 151.0625 383.203125 L 170.109375 349.234375 L 180.328125 332.40625 L 194.546875 310.296875 L 216.921875 277.96875 L 244.40625 241.578125 L 260.078125 222.21875 L 274.0625 205.734375 L 290.015625 187.734375 L 305.875 170.734375 L 321.703125 154.625 L 334.90625 141.828125 L 350.03125 127.953125 L 364.40625 115.578125 L 377.953125 104.765625 L 390.734375 95.390625 L 402.6875 87.5625 L 413.453125 81.46875 L 422.828125 77.1875 L 430.859375 74.625 L 434.96875 73.984375 L 440.484375 74.296875 L 445.40625 75.40625 L 448.8125 76.875 L 451.03125 78.53125 L 451.296875 78.828125 L 451.953125 79.9375 L 452.609375 82.109375 L 452.765625 86.453125 L 451.78125 92.359375 L 449.859375 98.65625 L 443.609375 113.140625 L 434.71875 129.84375 L 383.609375 214.6875 L 369.890625 239.25 L 360.046875 258.375 L 348.125 284.390625 L 340.328125 304.4375 L 333.359375 326.390625 L 328.578125 346.890625 L 326.03125 363.5 L 324.71875 382.765625 L 325.015625 402.25 L 326.90625 421.75 L 330.34375 441.21875 L 335.203125 460.5 L 342.046875 481.03125 L 349.765625 499.546875 L 355.671875 511.703125 L 362.078125 523.515625 L 369.046875 535.078125 L 377.484375 547.65625 L 385.5625 558.484375 L 394.109375 568.890625 L 403.140625 578.875 L 412.625 588.40625 L 422.578125 597.4375 L 432.9375 605.9375 L 443.734375 613.859375 L 454.9375 621.1875 L 466.53125 627.890625 L 478.5 633.890625 L 490.78125 639.1875 L 500.3125 642.703125 L 513.171875 646.65625 L 526.390625 649.8125 L 539.84375 652.109375 L 550.234375 653.25 L 564.109375 653.96875 L 573.859375 653.875 L 583.484375 653.1875 L 596.109375 651.4375 L 605.6875 649.484375 L 618.21875 646.140625 L 630.671875 641.9375 L 642.953125 636.9375 L 652.140625 632.640625 L 664.09375 626.328125 L 675.859375 619.328125 L 687.390625 611.625 L 701.34375 601.234375 L 713.53125 591.078125 L 724.046875 581.46875 L 738.953125 566.296875 L 748.5 555.515625 L 761.859375 538.765625 L 774.09375 521.28125 L 781.65625 509.15625 L 789.4375 495.328125 L 797.1875 479.640625 L 803.9375 463.734375 L 808.609375 450.765625 L 813.375 434.578125 L 816.390625 421.46875 L 818.984375 405.25 L 820.125 392.203125 L 820.390625 379.3125 L 819.984375 369.640625 L 819.046875 360.109375 L 817.609375 350.9375 L 815.046875 339.515625 L 812.03125 328.9375 L 804.359375 307.5 L 794.78125 285.296875 L 780.96875 257 L 734.75 171.21875 L 723.34375 148.859375 L 713.125 126.3125 L 707.421875 110.328125 L 705.15625 101.25 L 704.34375 95.484375 L 704.296875 89.5 L 704.90625 86.140625 L 705.9375 83.609375 L 707.359375 81.71875 L 709.25 80.234375 L 712.671875 78.75 L 714.53125 79.03125 L 717.890625 80.203125 L 722.859375 82.625 L 735.765625 90.703125 L 750.09375 101.5 L 768.046875 116.734375 L 788.140625 135.40625 L 809.984375 157.25 L 832.734375 181.484375 L 856.0625 207.859375 L 871.890625 226.6875 L 895.90625 256.671875 L 895.921875 256.671875 L 911.46875 277.125 L 932.65625 306.5 L 951.40625 334.1875 L 968.953125 361.90625 L 982.484375 384.765625 L 994.890625 407.21875 L 1006.65625 430.28125 L 1017.09375 452.671875 L 1024.234375 469.515625 L 1032.84375 492.265625 L 1038.28125 508.765625 L 1042.8125 524.609375 L 1046.703125 541.078125 L 1049.53125 556.421875 L 1051.484375 571.765625 L 1052.46875 586.875 L 1052.5625 596.390625 L 1051.8125 610.859375 L 1050.125 626.328125 L 1047.703125 641.75 L 1043.4375 662.0625 L 1037.765625 682.90625 L 1031.140625 702.859375 L 1023.375 722.703125 L 1011.96875 747.5625 L 1001.75 766.9375 L 990.609375 785.84375 L 978.65625 804.203125 L 961.953125 827.28125 L 948.171875 844.5625 L 933.21875 861.796875 L 917.53125 878.4375 L 897.21875 898.1875 L 879.84375 913.65625 L 857.859375 931.578125 L 834.65625 948.6875 L 815.6875 961.4375 L 791.609375 976.125 L 771.40625 987.25 Z"/>
    <path id="path9" fill="none" stroke="#000000" stroke-width="14" d="M 363.21875 186.359375 L 353.578125 203.546875 L 341.390625 227.109375 L 327.078125 257.28125 L 315.703125 283.546875 L 304.46875 312.265625 L 296.4375 335.171875 L 288.28125 361.609375 L 281.234375 388.8125 L 277.65625 405.46875 L 274.890625 421.859375 L 273.796875 435.515625 L 273.6875 449.9375 L 274.5 465.015625 L 276.796875 484.546875 L 280.421875 504.65625 L 285.328125 525.09375 L 291.453125 545.640625 L 298.734375 566.03125 L 307.140625 586.03125 L 316.609375 605.375 L 327.0625 623.796875 L 336.15625 637.765625 L 345.859375 650.859375 L 358.515625 665.59375 L 372.40625 679.578125 L 387.53125 692.84375 L 403.765625 705.359375 L 420.96875 717.015625 L 439.015625 727.734375 L 457.765625 737.390625 L 477.09375 745.921875 L 496.890625 753.21875 L 520.9375 760.15625 L 533.1875 762.875 L 545.390625 765.046875 L 557.609375 766.640625 L 569.765625 767.625 L 581.71875 768.015625 L 592.78125 767.828125 L 614.515625 765.9375 L 625.484375 764.234375 L 639.84375 761.265625 L 650.59375 758.484375 L 664.671875 754.125 L 675.1875 750.328125 L 688.9375 744.65625 L 699.15625 739.90625 L 712.4375 733 L 722.28125 727.375 L 735.0625 719.34375 L 744.46875 712.875 L 756.640625 703.796875 L 768.4375 694.140625 L 779.796875 683.9375 L 790.703125 673.234375 L 798.484375 664.90625 L 813.03125 647.09375 L 826.4375 627.703125 L 832.765625 617.40625 L 840.578125 603.359375 L 849.453125 585.296875 L 857.265625 566.796875 L 863.921875 548.0625 L 869.328125 529.28125 L 873.421875 510.625 L 876.09375 492.3125 L 877.25 474.484375 L 876.8125 457.390625 L 875.578125 446.421875 L 872.890625 430.203125 L 866.90625 402.875 L 857.609375 369.90625 L 845.75 334.875 L 833.875 304.015625 L 817.921875 266.578125 L 800.015625 228.4375 L 785.65625 200.53125 L 803.171875 184.3125 L 827.8125 215.90625 L 848.03125 243.46875 L 848.015625 243.46875 L 863.203125 265.078125 L 876.9375 285.390625 L 892.921875 310.1875 L 908.8125 336.3125 L 920.125 356.125 L 931.046875 376.515625 L 940.96875 396.53125 L 950.109375 416.90625 L 955.34375 429.84375 L 962.265625 449.34375 L 966.5625 463.875 L 970.0625 478.890625 L 972.015625 490.625 L 973.140625 502.640625 L 973.640625 520.390625 L 972.984375 538.3125 L 971.296875 556.078125 L 968.578125 573.875 L 964.765625 592.0625 L 960.171875 609.484375 L 954.515625 627.25 L 948.046875 644.71875 L 940.921875 661.53125 L 932.921875 678.265625 L 921.78125 698.875 L 912.328125 714.5 L 899.359375 733.765625 L 888.640625 748.171875 L 874.15625 765.734375 L 856.640625 784.8125 L 841.796875 799.625 L 825.765625 814.375 L 809.46875 828.21875 L 792.21875 841.671875 L 774.5 854.3125 L 756.1875 866.1875 L 737.359375 877.171875 L 718.453125 887 L 703.59375 893.875 L 689.09375 899.890625 L 673.859375 905.453125 L 654 911.53125 L 638.78125 915.265625 L 623.5 918.21875 L 608.15625 920.359375 L 592.6875 921.609375 L 577.046875 922 L 559.359375 921.453125 L 541.265625 920 L 523.578125 917.71875 L 505.546875 914.546875 L 487.53125 910.515625 L 469.875 905.734375 L 452.109375 900.109375 L 434.53125 893.703125 L 417.203125 886.578125 L 394.734375 876 L 378.046875 867.171875 L 361.78125 857.640625 L 346.09375 847.546875 L 331.078125 836.96875 L 311.625 821.6875 L 297.734375 809.546875 L 284.734375 797.0625 L 272.40625 784.046875 L 260.5625 770.1875 L 249.734375 756.09375 L 240.5 742.640625 L 232.34375 729.09375 L 225.140625 715.390625 L 218.625 701.078125 L 213.0625 686.890625 L 206.75 667.328125 L 202.734375 651.90625 L 198.59375 631.515625 L 196.25 615.921875 L 194.015625 594.28125 L 193.0625 578.3125 L 192.640625 556.359375 L 193.140625 533.78125 L 194.484375 511.453125 L 196.65625 488.609375 L 199.515625 465.609375 L 203.53125 439.5625 L 208.890625 410.265625 L 211.4375 399.1875 L 215.484375 385.578125 L 224.78125 360.828125 L 236.375 335.140625 L 252.578125 303.6875 L 268.765625 275.1875 L 292.890625 235.984375 L 319.890625 195.328125 L 341.0625 165.578125 Z"/>
    <g id="Group">
        <path id="path10" fill="none" stroke="#000000" stroke-width="20" d="M 379 105 C 415.826782 133.864136 430 143 430 143"/>
        <path id="path11" fill="none" stroke="#000000" stroke-width="20" d="M 756 109 L 722 139"/>
        <path id="path12" fill="none" stroke="#000000" stroke-width="20" d="M 328 152 L 389 203"/>
        <path id="path13" fill="none" stroke="#000000" stroke-width="20" d="M 814 155 L 756 216"/>
    </g>
</svg>
