<svg xmlns="http://www.w3.org/2000/svg" version="1.1" xmlns:xlink="http://www.w3.org/1999/xlink" xmlns:svgjs="http://svgjs.com/svgjs" width="168" height="168"><svg width="168" height="168" viewBox="0 0 168 168" fill="none" xmlns="http://www.w3.org/2000/svg">
<path d="M84 93.6V119.2M42.4 4C23.2 4 4 10.4 4 32.8C4 55.2 23.2 61.6 42.4 61.6M42.4 4H125.6M42.4 4V48.8C42.4 68 55.2 87.2 84 87.2C112.8 87.2 125.6 68 125.6 48.8V4M125.6 4C144.8 4 164 10.4 164 32.8C164 55.2 144.8 61.6 125.6 61.6M42.4 119.2H125.6V164H42.4V119.2Z" stroke="white" stroke-width="8" stroke-linecap="round" stroke-linejoin="round"></path>
</svg><style>@media (prefers-color-scheme: light) { :root { filter: contrast(1) brightness(0.7); } }
</style></svg>