<svg width="18" height="18" viewBox="0 0 18 18" fill="none" xmlns="http://www.w3.org/2000/svg">
<path d="M2.58333 17.25C2.07917 17.25 1.64772 17.0706 1.289 16.7119C0.930278 16.3532 0.750611 15.9214 0.75 15.4167V2.58333C0.75 2.07917 0.929667 1.64772 1.289 1.289C1.64833 0.930278 2.07978 0.750611 2.58333 0.75H15.4167C15.9208 0.75 16.3526 0.929667 16.7119 1.289C17.0713 1.64833 17.2506 2.07978 17.25 2.58333V15.4167C17.25 15.9208 17.0706 16.3526 16.7119 16.7119C16.3532 17.0713 15.9214 17.2506 15.4167 17.25H2.58333ZM2.58333 15.4167H15.4167V2.58333H2.58333V15.4167ZM3.5 13.5833H14.5L11.0625 9L8.3125 12.6667L6.25 9.91667L3.5 13.5833Z" fill="black"/>
</svg>
